<?xml version="1.0" standalone="no"?>
<!DOCTYPE svg PUBLIC "-//W3C//DTD SVG 20010904//EN"
 "http://www.w3.org/TR/2001/REC-SVG-20010904/DTD/svg10.dtd">
<svg version="1.0" xmlns="http://www.w3.org/2000/svg"
 width="96.000000pt" height="96.000000pt" viewBox="0 0 96.000000 96.000000"
 preserveAspectRatio="xMidYMid meet">

<g transform="translate(0.000000,96.000000) scale(0.100000,-0.100000)"
fill="#000000" stroke="none">
<path d="M437 834 c-219 -67 -405 -128 -413 -135 -8 -6 -14 -23 -14 -38 1 -14
-2 -39 -6 -54 -5 -21 -1 -36 15 -57 20 -28 21 -40 21 -278 0 -179 3 -251 12
-260 17 -17 879 -17 896 0 9 9 12 88 12 295 0 156 -1 284 -2 285 -2 1 -169 5
-373 8 l-370 5 343 105 c188 57 348 107 354 111 9 6 7 22 -6 66 -19 59 -30 73
-56 72 -8 -1 -194 -57 -413 -125z m402 61 c40 -20 47 -43 15 -55 -35 -14 -43
-12 -93 14 l-44 23 44 16 c24 8 45 16 47 16 2 1 16 -6 31 -14z m-169 -105 c0
-4 -18 -12 -40 -19 -36 -11 -44 -9 -80 11 -22 13 -40 26 -40 30 0 3 17 10 38
15 30 8 45 6 80 -11 23 -11 42 -23 42 -26z m-249 -45 c28 -15 38 -26 29 -29
-74 -24 -74 -24 -125 2 l-50 25 40 12 c56 18 58 18 106 -10z m-219 -66 c46
-23 41 -32 -22 -44 -29 -5 -39 -2 -54 14 -11 12 -31 21 -45 22 -24 0 -23 2 9
14 49 19 65 18 112 -6z m-97 -84 c0 -27 -3 -30 -30 -30 -21 0 -31 5 -33 18 -6
33 6 49 35 45 24 -3 28 -8 28 -33z m120 -75 c-35 -36 -44 -40 -89 -40 l-50 0
39 40 c35 36 44 40 89 40 l50 0 -39 -40z m230 0 c-35 -36 -44 -40 -89 -40
l-50 0 39 40 c35 36 44 40 89 40 l50 0 -39 -40z m230 0 c-35 -36 -44 -40 -89
-40 l-50 0 39 40 c35 36 44 40 89 40 l50 0 -39 -40z m235 18 c0 -40 -28 -58
-89 -58 l-55 0 39 40 c30 31 47 40 72 40 27 0 33 -4 33 -22z"/>
</g>
</svg>
