<?xml version="1.0" standalone="no"?>
<!DOCTYPE svg PUBLIC "-//W3C//DTD SVG 20010904//EN"
 "http://www.w3.org/TR/2001/REC-SVG-20010904/DTD/svg10.dtd">
<svg version="1.0" xmlns="http://www.w3.org/2000/svg"
 width="96.000000pt" height="96.000000pt" viewBox="0 0 96.000000 96.000000"
 preserveAspectRatio="xMidYMid meet">

<g transform="translate(0.000000,96.000000) scale(0.100000,-0.100000)"
fill="#000000" stroke="none">
<path d="M118 804 c-53 -28 -58 -54 -58 -274 0 -222 5 -247 60 -275 43 -22
677 -22 720 0 55 28 60 53 60 275 0 222 -5 247 -60 275 -43 22 -681 22 -722
-1z m706 -60 c24 -23 24 -405 0 -428 -23 -24 -665 -24 -688 0 -24 23 -24 405
0 428 13 14 59 16 344 16 285 0 331 -2 344 -16z"/>
<path d="M284 165 c-4 -8 -4 -22 0 -30 5 -13 33 -15 198 -13 l193 3 0 25 0 25
-193 3 c-165 2 -193 0 -198 -13z"/>
</g>
</svg>
